<svg width="17" height="17" viewBox="0 0 17 17" fill="none" xmlns="http://www.w3.org/2000/svg">
<path d="M8.398 6.069C9.486 6.12 9.7665 7.0465 9.7835 7.48H11.305C11.237 5.797 10.0385 4.7685 8.3725 4.7685C6.494 4.7685 5.1 5.95 5.1 8.619C5.1 10.268 5.8905 12.223 8.364 12.223C10.251 12.223 11.2625 10.8205 11.288 9.7155H9.7665C9.741 10.217 9.384 10.8885 8.381 10.9395C7.2675 10.9055 6.8 10.0385 6.8 8.619C6.8 6.1625 7.888 6.086 8.398 6.069ZM8.5 0C3.808 0 0 3.808 0 8.5C0 13.192 3.808 17 8.5 17C13.192 17 17 13.192 17 8.5C17 3.808 13.192 0 8.5 0ZM8.5 15.3C4.7515 15.3 1.7 12.2485 1.7 8.5C1.7 4.7515 4.7515 1.7 8.5 1.7C12.2485 1.7 15.3 4.7515 15.3 8.5C15.3 12.2485 12.2485 15.3 8.5 15.3Z" fill="#666666"/>
</svg>
