<svg width="50" height="50" viewBox="0 0 50 50" fill="none" xmlns="http://www.w3.org/2000/svg">
<path fill-rule="evenodd" clip-rule="evenodd" d="M15.1041 20.8333C15.1041 18.2088 16.1467 15.6918 18.0025 13.8359C19.8584 11.9801 22.3754 10.9375 25 10.9375C27.6245 10.9375 30.1415 11.9801 31.9974 13.8359C33.8532 15.6918 34.8958 18.2088 34.8958 20.8333C34.8958 23.4579 33.8532 25.9749 31.9974 27.8307C30.1415 29.6866 27.6245 30.7292 25 30.7292C22.3754 30.7292 19.8584 29.6866 18.0025 27.8307C16.1467 25.9749 15.1041 23.4579 15.1041 20.8333ZM25 14.0625C23.2042 14.0625 21.482 14.7759 20.2123 16.0456C18.9425 17.3154 18.2291 19.0376 18.2291 20.8333C18.2291 22.6291 18.9425 24.3513 20.2123 25.621C21.482 26.8908 23.2042 27.6042 25 27.6042C26.7957 27.6042 28.5179 26.8908 29.7877 25.621C31.0574 24.3513 31.7708 22.6291 31.7708 20.8333C31.7708 19.0376 31.0574 17.3154 29.7877 16.0456C28.5179 14.7759 26.7957 14.0625 25 14.0625Z" fill="white"/>
<path fill-rule="evenodd" clip-rule="evenodd" d="M7.34168 18.452C7.69777 14.1329 9.66507 10.1056 12.853 7.16969C16.0408 4.23383 20.2162 2.60411 24.55 2.60413H25.45C29.7838 2.60411 33.9592 4.23383 37.1471 7.16969C40.335 10.1056 42.3022 14.1329 42.6583 18.452C43.0546 23.2631 41.5683 28.0401 38.5125 31.777L28.5271 43.9875C28.0998 44.51 27.5616 44.9311 26.9517 45.2203C26.3417 45.5094 25.6751 45.6594 25 45.6594C24.325 45.6594 23.6583 45.5094 23.0484 45.2203C22.4384 44.9311 21.9003 44.51 21.4729 43.9875L11.4875 31.777C8.4315 28.0402 6.94519 23.2631 7.34168 18.452ZM24.55 5.72913C21.001 5.72966 17.582 7.0646 14.9715 9.46896C12.3611 11.8733 10.7501 15.1713 10.4583 18.7083C10.1283 22.7122 11.3652 26.6878 13.9083 29.7979L23.8938 42.0104C24.028 42.1747 24.1971 42.3071 24.3888 42.398C24.5804 42.4889 24.7899 42.536 25.0021 42.536C25.2142 42.536 25.4237 42.4889 25.6154 42.398C25.8071 42.3071 25.9762 42.1747 26.1104 42.0104L36.0958 29.7979C38.6375 26.6872 39.8728 22.7116 39.5417 18.7083C39.2499 15.171 37.6386 11.8727 35.0277 9.46825C32.4169 7.06384 28.9973 5.72914 25.4479 5.72913H24.5479H24.55Z" fill="white"/>
</svg>
