<svg width="50" height="50" viewBox="0 0 50 50" fill="none" xmlns="http://www.w3.org/2000/svg">
<path d="M23.1709 10.6292C22.8626 9.79005 22.245 9.10066 21.4447 8.70243C20.6443 8.30419 19.7219 8.22729 18.8667 8.48751C14.8125 9.73751 11.9792 13.2167 12.5875 17.2417C13.2679 21.7089 14.7817 26.0085 17.05 29.9167C19.2942 33.8158 22.2361 37.2691 25.7292 40.1042C28.8709 42.6458 33.2792 41.9458 36.3875 39.0292C37.0414 38.4155 37.4381 37.5767 37.4976 36.682C37.5572 35.7872 37.2751 34.9032 36.7084 34.2083L34.4834 31.4875C34.0377 30.9404 33.4379 30.5398 32.7618 30.3377C32.0857 30.1356 31.3645 30.1414 30.6917 30.3542L25.5584 31.9792L24.6625 31.0542C23.5338 29.8835 22.5465 28.5843 21.7209 27.1833C20.9196 25.7665 20.2954 24.2566 19.8625 22.6875L19.5167 21.4583L23.475 17.8125C23.9974 17.3275 24.3638 16.6982 24.5277 16.0046C24.6917 15.3109 24.6458 14.5842 24.3959 13.9167L23.175 10.6333L23.1709 10.6292ZM17.6417 4.50417C19.5132 3.93158 21.5328 4.09638 23.2867 4.9648C25.0405 5.83322 26.3959 7.33951 27.075 9.17501L28.2959 12.4583C28.8344 13.9008 28.9318 15.4709 28.5757 16.9689C28.2196 18.4668 27.426 19.8251 26.2959 20.8708L24.2542 22.75C24.5167 23.475 24.8709 24.3042 25.3292 25.1083C25.7875 25.9 26.3209 26.6208 26.8084 27.2083L29.4334 26.375C30.9009 25.9117 32.4738 25.8995 33.9483 26.34C35.4229 26.7805 36.7313 27.6534 37.7042 28.8458L39.9292 31.5667C41.1658 33.0788 41.7821 35.0039 41.6537 36.9531C41.5253 38.9022 40.6618 40.7298 39.2375 42.0667C35.0959 45.9542 28.3334 47.5667 23.1125 43.3417C19.2223 40.1857 15.9456 36.3412 13.4459 32C10.9152 27.641 9.22622 22.8453 8.46671 17.8625C7.46671 11.225 12.2292 6.17084 17.6417 4.50834V4.50417Z" fill="white"/>
</svg>
